<?xml version="1.0" standalone="no"?>
<!DOCTYPE svg PUBLIC "-//W3C//DTD SVG 20010904//EN"
 "http://www.w3.org/TR/2001/REC-SVG-20010904/DTD/svg10.dtd">
<svg version="1.0" xmlns="http://www.w3.org/2000/svg"
 width="1024.000000pt" height="1024.000000pt" viewBox="0 0 1024.000000 1024.000000"
 preserveAspectRatio="xMidYMid meet">

<g transform="translate(0.000000,1024.000000) scale(0.100000,-0.100000)"
fill="#000000" stroke="none">
<path d="M7230 8779 c-277 -24 -581 -130 -802 -280 -126 -86 -297 -259 -367
-373 -65 -105 -116 -248 -132 -374 -31 -234 53 -496 227 -702 30 -36 107 -112
171 -170 187 -167 197 -201 153 -525 -27 -201 -24 -269 14 -302 32 -28 69 -29
116 -5 19 10 116 78 215 152 218 162 331 236 399 263 42 16 88 21 256 28 308
11 420 28 621 95 275 90 554 290 699 500 63 92 132 236 156 329 27 102 24 311
-5 420 -83 314 -334 593 -688 766 -313 152 -655 211 -1033 178z m-360 -931
c67 -35 103 -86 108 -156 16 -218 -278 -295 -369 -97 -76 164 100 335 261 253z
m668 1 c147 -71 145 -283 -3 -350 -122 -56 -260 20 -273 150 -15 157 137 267
276 200z m662 -1 c24 -13 58 -40 74 -61 28 -35 31 -46 31 -111 0 -62 -4 -78
-27 -113 -81 -123 -276 -105 -339 32 -76 164 100 335 261 253z"/>
<path d="M2425 8091 c-132 -34 -219 -147 -219 -281 1 -160 121 -282 280 -284
60 -1 61 -2 95 -46 63 -84 374 -554 460 -695 113 -186 143 -254 136 -312 -5
-51 -35 -88 -81 -102 -17 -6 -107 -22 -199 -36 -372 -57 -539 -116 -710 -255
-149 -120 -241 -280 -307 -533 -154 -590 -161 -1808 -14 -2466 111 -495 342
-731 814 -830 71 -15 85 -21 84 -37 -1 -11 -52 -155 -113 -321 -61 -165 -111
-315 -111 -333 0 -44 25 -87 63 -107 48 -27 212 -23 289 6 77 30 114 65 397
380 233 258 247 271 280 271 20 0 149 -7 286 -17 311 -20 1244 -24 1490 -5 88
7 207 15 265 18 l105 7 185 -209 c101 -115 232 -257 290 -315 99 -101 109
-108 175 -129 92 -28 245 -32 292 -7 43 23 67 69 60 118 -3 21 -43 141 -90
266 -47 126 -99 265 -115 310 l-30 82 71 16 c118 26 256 75 351 123 346 177
496 488 570 1182 90 846 13 1868 -169 2230 -65 129 -168 240 -222 240 -11 0
-104 -41 -207 -90 -249 -120 -289 -133 -401 -134 -79 -1 -97 2 -147 27 -117
58 -148 129 -157 367 l-6 155 -70 7 c-222 21 -555 40 -970 53 -258 9 -486 20
-506 25 -72 20 -91 77 -51 156 41 80 211 296 369 470 l83 91 77 0 c127 0 209
49 262 155 110 220 -91 454 -331 384 -72 -21 -138 -79 -168 -147 -18 -44 -21
-66 -19 -135 l4 -83 -285 -303 c-360 -382 -433 -455 -506 -498 -54 -33 -64
-35 -144 -35 -75 0 -92 4 -145 30 -93 47 -146 105 -735 805 -325 386 -298 349
-284 390 22 60 17 168 -10 225 -25 55 -90 119 -141 141 -42 17 -131 25 -170
15z m2845 -2286 c920 -72 1197 -168 1372 -475 104 -181 160 -549 159 -1040 -1
-294 -17 -502 -56 -713 -98 -534 -350 -721 -1102 -817 -430 -55 -1112 -76
-1550 -46 -586 40 -945 107 -1168 218 -276 137 -385 348 -441 858 -25 219 -25
754 -1 970 61 542 179 758 485 888 189 81 550 138 1082 172 211 13 983 4 1220
-15z"/>
<path d="M3774 5340 c-52 -26 -100 -73 -127 -124 l-22 -41 -3 -914 c-3 -1044
-7 -987 77 -1071 79 -79 187 -100 291 -57 30 13 174 95 320 182 146 87 479
287 740 443 261 157 492 299 514 315 71 56 102 158 74 248 -22 76 -64 109
-335 265 -142 81 -373 213 -513 294 -543 311 -791 451 -825 465 -51 22 -142
19 -191 -5z"/>
</g>
</svg>
